<svg width="2220" height="1500" viewBox="0 0 2220 1500" fill="none" xmlns="http://www.w3.org/2000/svg">
<g clip-path="url(#clip0_244_674)">
<path d="M2220 0H0V1500H2220V0Z" fill="#FE705A"/>
<path d="M776.855 904C771.855 904 767.455 903.6 763.655 902.8C759.855 902.2 756.555 901.4 753.755 900.4V879.1C756.755 879.9 759.855 880.6 763.055 881.2C766.255 881.8 769.755 882.1 773.555 882.1C779.955 882.1 785.255 880.3 789.455 876.7C793.655 873.3 795.755 866.7 795.755 856.9V671.2H822.155V856C822.155 866 820.555 874.6 817.355 881.8C814.155 889 809.255 894.5 802.655 898.3C796.055 902.1 787.455 904 776.855 904ZM793.655 627.7C793.655 621.9 795.155 617.7 798.155 615.1C801.155 612.3 804.855 610.9 809.255 610.9C813.255 610.9 816.755 612.3 819.755 615.1C822.955 617.7 824.555 621.9 824.555 627.7C824.555 633.3 822.955 637.5 819.755 640.3C816.755 643.1 813.255 644.5 809.255 644.5C804.855 644.5 801.155 643.1 798.155 640.3C795.155 637.5 793.655 633.3 793.655 627.7ZM899.499 832H873.099V604H899.499V832ZM1007.44 668.2C1018.04 668.2 1027.54 670.2 1035.94 674.2C1044.54 678.2 1051.84 684.3 1057.84 692.5H1059.34L1062.94 671.2H1083.94V834.7C1083.94 849.9 1081.34 862.6 1076.14 872.8C1070.94 883.2 1063.04 891 1052.44 896.2C1041.84 901.4 1028.34 904 1011.94 904C1000.34 904 989.642 903.1 979.842 901.3C970.242 899.7 961.642 897.2 954.042 893.8V869.5C959.242 872.1 964.942 874.3 971.142 876.1C977.342 878.1 984.042 879.6 991.242 880.6C998.442 881.6 1005.84 882.1 1013.44 882.1C1027.24 882.1 1038.04 878 1045.84 869.8C1053.84 861.8 1057.84 850.8 1057.84 836.8V830.5C1057.84 828.1 1057.94 824.7 1058.14 820.3C1058.34 815.7 1058.54 812.5 1058.74 810.7H1057.54C1051.94 818.9 1044.94 825 1036.54 829C1028.34 833 1018.74 835 1007.74 835C986.942 835 970.642 827.7 958.842 813.1C947.242 798.5 941.442 778.1 941.442 751.9C941.442 734.7 944.042 719.9 949.242 707.5C954.642 694.9 962.242 685.2 972.042 678.4C981.842 671.6 993.642 668.2 1007.44 668.2ZM1011.04 690.4C1002.04 690.4 994.342 692.8 987.942 697.6C981.742 702.4 976.942 709.4 973.542 718.6C970.342 727.8 968.742 739 968.742 752.2C968.742 772 972.342 787.2 979.542 797.8C986.942 808.2 997.642 813.4 1011.64 813.4C1019.84 813.4 1026.84 812.4 1032.64 810.4C1038.44 808.2 1043.24 804.9 1047.04 800.5C1050.84 795.9 1053.64 790.1 1055.44 783.1C1057.24 776.1 1058.14 767.8 1058.14 758.2V751.9C1058.14 737.3 1056.44 725.5 1053.04 716.5C1049.84 707.5 1044.74 700.9 1037.74 696.7C1030.74 692.5 1021.84 690.4 1011.04 690.4ZM1274.81 751.3C1274.81 764.7 1273.01 776.6 1269.41 787C1266.01 797.2 1261.01 805.9 1254.41 813.1C1248.01 820.3 1240.11 825.8 1230.71 829.6C1221.51 833.2 1211.21 835 1199.81 835C1189.21 835 1179.41 833.2 1170.41 829.6C1161.41 825.8 1153.61 820.3 1147.01 813.1C1140.41 805.9 1135.21 797.2 1131.41 787C1127.81 776.6 1126.01 764.7 1126.01 751.3C1126.01 733.5 1129.01 718.5 1135.01 706.3C1141.01 693.9 1149.61 684.5 1160.81 678.1C1172.01 671.5 1185.31 668.2 1200.71 668.2C1215.31 668.2 1228.11 671.5 1239.11 678.1C1250.31 684.5 1259.01 693.9 1265.21 706.3C1271.61 718.5 1274.81 733.5 1274.81 751.3ZM1153.31 751.3C1153.31 763.9 1154.91 774.9 1158.11 784.3C1161.51 793.5 1166.71 800.6 1173.71 805.6C1180.71 810.6 1189.61 813.1 1200.41 813.1C1211.21 813.1 1220.11 810.6 1227.11 805.6C1234.11 800.6 1239.21 793.5 1242.41 784.3C1245.81 774.9 1247.51 763.9 1247.51 751.3C1247.51 738.5 1245.81 727.6 1242.41 718.6C1239.01 709.6 1233.81 702.7 1226.81 697.9C1220.01 692.9 1211.11 690.4 1200.11 690.4C1183.71 690.4 1171.81 695.8 1164.41 706.6C1157.01 717.4 1153.31 732.3 1153.31 751.3ZM1451.05 671.2V832H1429.45L1425.55 810.7H1424.35C1420.95 816.3 1416.55 820.9 1411.15 824.5C1405.75 828.1 1399.85 830.7 1393.45 832.3C1387.05 834.1 1380.35 835 1373.35 835C1360.55 835 1349.75 833 1340.95 829C1332.35 824.8 1325.85 818.4 1321.45 809.8C1317.05 801.2 1314.85 790.1 1314.85 776.5V671.2H1341.55V774.7C1341.55 787.5 1344.45 797.1 1350.25 803.5C1356.05 809.9 1365.05 813.1 1377.25 813.1C1389.25 813.1 1398.65 810.9 1405.45 806.5C1412.45 801.9 1417.35 795.3 1420.15 786.7C1423.15 777.9 1424.65 767.3 1424.65 754.9V671.2H1451.05ZM1563 668.5C1582.6 668.5 1597.1 672.8 1606.5 681.4C1615.9 690 1620.6 703.7 1620.6 722.5V832H1601.4L1596.3 809.2H1595.1C1590.5 815 1585.7 819.9 1580.7 823.9C1575.9 827.7 1570.3 830.5 1563.9 832.3C1557.7 834.1 1550.1 835 1541.1 835C1531.5 835 1522.8 833.3 1515 829.9C1507.4 826.5 1501.4 821.3 1497 814.3C1492.6 807.1 1490.4 798.1 1490.4 787.3C1490.4 771.3 1496.7 759 1509.3 750.4C1521.9 741.6 1541.3 736.8 1567.5 736L1594.8 735.1V725.5C1594.8 712.1 1591.9 702.8 1586.1 697.6C1580.3 692.4 1572.1 689.8 1561.5 689.8C1553.1 689.8 1545.1 691.1 1537.5 693.7C1529.9 696.1 1522.8 698.9 1516.2 702.1L1508.1 682.3C1515.1 678.5 1523.4 675.3 1533 672.7C1542.6 669.9 1552.6 668.5 1563 668.5ZM1570.8 754.3C1550.8 755.1 1536.9 758.3 1529.1 763.9C1521.5 769.5 1517.7 777.4 1517.7 787.6C1517.7 796.6 1520.4 803.2 1525.8 807.4C1531.4 811.6 1538.5 813.7 1547.1 813.7C1560.7 813.7 1572 810 1581 802.6C1590 795 1594.5 783.4 1594.5 767.8V753.4L1570.8 754.3ZM1696.67 670.9C1696.67 674.7 1696.47 678.6 1696.07 682.6C1695.87 686.6 1695.57 690.2 1695.17 693.4H1696.97C1700.37 687.8 1704.67 683.2 1709.87 679.6C1715.07 676 1720.87 673.3 1727.27 671.5C1733.67 669.5 1740.27 668.5 1747.07 668.5C1760.07 668.5 1770.87 670.6 1779.47 674.8C1788.27 678.8 1794.87 685.1 1799.27 693.7C1803.67 702.3 1805.87 713.5 1805.87 727.3V832H1779.77V729.1C1779.77 716.1 1776.87 706.4 1771.07 700C1765.27 693.6 1756.17 690.4 1743.77 690.4C1731.77 690.4 1722.37 692.7 1715.57 697.3C1708.77 701.7 1703.87 708.3 1700.87 717.1C1698.07 725.7 1696.67 736.3 1696.67 748.9V832H1670.27V604H1696.67V670.9ZM1995.52 751.3C1995.52 764.7 1993.72 776.6 1990.12 787C1986.72 797.2 1981.72 805.9 1975.12 813.1C1968.72 820.3 1960.82 825.8 1951.42 829.6C1942.22 833.2 1931.92 835 1920.52 835C1909.92 835 1900.12 833.2 1891.12 829.6C1882.12 825.8 1874.32 820.3 1867.72 813.1C1861.12 805.9 1855.92 797.2 1852.12 787C1848.52 776.6 1846.72 764.7 1846.72 751.3C1846.72 733.5 1849.72 718.5 1855.72 706.3C1861.72 693.9 1870.32 684.5 1881.52 678.1C1892.72 671.5 1906.02 668.2 1921.42 668.2C1936.02 668.2 1948.82 671.5 1959.82 678.1C1971.02 684.5 1979.72 693.9 1985.92 706.3C1992.32 718.5 1995.52 733.5 1995.52 751.3ZM1874.02 751.3C1874.02 763.9 1875.62 774.9 1878.82 784.3C1882.22 793.5 1887.42 800.6 1894.42 805.6C1901.42 810.6 1910.32 813.1 1921.12 813.1C1931.92 813.1 1940.82 810.6 1947.82 805.6C1954.82 800.6 1959.92 793.5 1963.12 784.3C1966.52 774.9 1968.22 763.9 1968.22 751.3C1968.22 738.5 1966.52 727.6 1963.12 718.6C1959.72 709.6 1954.52 702.7 1947.52 697.9C1940.72 692.9 1931.82 690.4 1920.82 690.4C1904.42 690.4 1892.52 695.8 1885.12 706.6C1877.72 717.4 1874.02 732.3 1874.02 751.3Z" fill="white"/>
<path d="M367.25 854.806L353.33 867.369C351.474 869.044 349.339 869.882 346.927 869.882C344.514 869.882 342.379 869.044 340.523 867.369L210.784 750.279C208.928 748.604 208 746.678 208 744.5C208 742.322 208.928 740.396 210.784 738.721L340.523 621.631C342.379 619.956 344.514 619.118 346.927 619.118C349.339 619.118 351.474 619.956 353.33 621.631L367.25 634.194C369.106 635.869 370.035 637.796 370.035 639.973C370.035 642.151 369.106 644.077 367.25 645.753L257.835 744.5L367.25 843.248C369.106 844.923 370.035 846.849 370.035 849.027C370.035 851.204 369.106 853.131 367.25 854.806ZM531.791 586.705L427.944 911.089C427.201 913.267 425.763 914.9 423.628 915.989C421.494 917.078 419.313 917.287 417.086 916.617L399.824 912.346C397.411 911.676 395.602 910.377 394.395 908.451C393.189 906.525 392.957 904.473 393.699 902.295L497.546 577.911C498.289 575.733 499.727 574.1 501.862 573.011C503.996 571.922 506.177 571.713 508.404 572.383L525.666 576.654C528.079 577.324 529.888 578.623 531.095 580.549C532.301 582.475 532.533 584.527 531.791 586.705ZM714.706 750.279L584.967 867.369C583.111 869.044 580.976 869.882 578.563 869.882C576.151 869.882 574.016 869.044 572.16 867.369L558.24 854.806C556.384 853.131 555.455 851.204 555.455 849.027C555.455 846.849 556.384 844.923 558.24 843.248L667.655 744.5L558.24 645.753C556.384 644.077 555.455 642.151 555.455 639.973C555.455 637.796 556.384 635.869 558.24 634.194L572.16 621.631C574.016 619.956 576.151 619.118 578.563 619.118C580.976 619.118 583.111 619.956 584.967 621.631L714.706 738.721C716.562 740.396 717.49 742.322 717.49 744.5C717.49 746.678 716.562 748.604 714.706 750.279Z" fill="white"/>
</g>
<defs>
<clipPath id="clip0_244_674">
<rect width="2220" height="1500" fill="white"/>
</clipPath>
</defs>
</svg>
